<?xml version="1.0" encoding="UTF-8" standalone="no"?>
<!DOCTYPE svg PUBLIC "-//W3C//DTD SVG 1.1//EN"
 "http://www.w3.org/Graphics/SVG/1.1/DTD/svg11.dtd">
<!-- Generated by graphviz version 2.38.0 (20140413.2041)
 -->
<!-- Title: G Pages: 1 -->
<svg width="603pt" height="710pt"
 viewBox="0.00 0.00 603.16 710.00" xmlns="http://www.w3.org/2000/svg" xmlns:xlink="http://www.w3.org/1999/xlink">
<g id="graph0" class="graph" transform="scale(1 1) rotate(0) translate(4 706)">
<title>G</title>
<polygon fill="white" stroke="none" points="-4,4 -4,-706 599.161,-706 599.161,4 -4,4"/>
<g id="clust1" class="cluster"><title>cluster_Global</title>
<path fill="none" stroke="gray" d="M76.8593,-98C76.8593,-98 575.161,-98 575.161,-98 581.161,-98 587.161,-104 587.161,-110 587.161,-110 587.161,-682 587.161,-682 587.161,-688 581.161,-694 575.161,-694 575.161,-694 76.8593,-694 76.8593,-694 70.8593,-694 64.8593,-688 64.8593,-682 64.8593,-682 64.8593,-110 64.8593,-110 64.8593,-104 70.8593,-98 76.8593,-98"/>
<text text-anchor="middle" x="326.01" y="-681.2" font-family="Times,serif" font-size="11.00" fill="gray">Global</text>
</g>
<g id="clust2" class="cluster"><title>cluster_\Halfpastfour</title>
<path fill="none" stroke="gray" d="M84.8593,-106C84.8593,-106 567.161,-106 567.161,-106 573.161,-106 579.161,-112 579.161,-118 579.161,-118 579.161,-655 579.161,-655 579.161,-661 573.161,-667 567.161,-667 567.161,-667 84.8593,-667 84.8593,-667 78.8593,-667 72.8593,-661 72.8593,-655 72.8593,-655 72.8593,-118 72.8593,-118 72.8593,-112 78.8593,-106 84.8593,-106"/>
<text text-anchor="middle" x="326.01" y="-654.2" font-family="Times,serif" font-size="11.00" fill="gray">Halfpastfour</text>
</g>
<g id="clust3" class="cluster"><title>cluster_\Halfpastfour\Reddit</title>
<path fill="none" stroke="gray" d="M92.8593,-114C92.8593,-114 559.161,-114 559.161,-114 565.161,-114 571.161,-120 571.161,-126 571.161,-126 571.161,-628 571.161,-628 571.161,-634 565.161,-640 559.161,-640 559.161,-640 92.8593,-640 92.8593,-640 86.8593,-640 80.8593,-634 80.8593,-628 80.8593,-628 80.8593,-126 80.8593,-126 80.8593,-120 86.8593,-114 92.8593,-114"/>
<text text-anchor="middle" x="326.01" y="-627.2" font-family="Times,serif" font-size="11.00" fill="gray">Reddit</text>
</g>
<g id="clust4" class="cluster"><title>cluster_\Halfpastfour\Reddit\Exceptions</title>
<path fill="none" stroke="gray" d="M378.134,-301C378.134,-301 551.161,-301 551.161,-301 557.161,-301 563.161,-307 563.161,-313 563.161,-313 563.161,-522 563.161,-522 563.161,-528 557.161,-534 551.161,-534 551.161,-534 378.134,-534 378.134,-534 372.134,-534 366.134,-528 366.134,-522 366.134,-522 366.134,-313 366.134,-313 366.134,-307 372.134,-301 378.134,-301"/>
<text text-anchor="middle" x="464.647" y="-521.2" font-family="Times,serif" font-size="11.00" fill="gray">Exceptions</text>
</g>
<g id="clust5" class="cluster"><title>cluster_\Halfpastfour\Reddit\Things</title>
<path fill="none" stroke="gray" d="M100.859,-542C100.859,-542 491.751,-542 491.751,-542 497.751,-542 503.751,-548 503.751,-554 503.751,-554 503.751,-601 503.751,-601 503.751,-607 497.751,-613 491.751,-613 491.751,-613 100.859,-613 100.859,-613 94.8593,-613 88.8593,-607 88.8593,-601 88.8593,-601 88.8593,-554 88.8593,-554 88.8593,-548 94.8593,-542 100.859,-542"/>
<text text-anchor="middle" x="296.305" y="-600.2" font-family="Times,serif" font-size="11.00" fill="gray">Things</text>
</g>
<g id="clust6" class="cluster"><title>cluster_\Halfpastfour\Reddit\Contexts</title>
<path fill="none" stroke="gray" d="M441.647,-222C441.647,-222 487.647,-222 487.647,-222 493.647,-222 499.647,-228 499.647,-234 499.647,-234 499.647,-281 499.647,-281 499.647,-287 493.647,-293 487.647,-293 487.647,-293 441.647,-293 441.647,-293 435.647,-293 429.647,-287 429.647,-281 429.647,-281 429.647,-234 429.647,-234 429.647,-228 435.647,-222 441.647,-222"/>
<text text-anchor="middle" x="464.647" y="-280.2" font-family="Times,serif" font-size="11.00" fill="gray">Contexts</text>
</g>
<!-- \\Halfpastfour\\Reddit\\Exceptions\\SubredditContextException -->
<g id="node1" class="node"><title>\\Halfpastfour\\Reddit\\Exceptions\\SubredditContextException</title>
<polygon fill="none" stroke="black" points="555.174,-507 374.12,-507 374.12,-471 555.174,-471 555.174,-507"/>
<text text-anchor="middle" x="464.647" y="-485.7" font-family="Courier,monospace" font-size="11.00">SubredditContextException</text>
</g>
<!-- \\Exception -->
<g id="node10" class="node"><title>\\Exception</title>
<ellipse fill="none" stroke="black" cx="151.067" cy="-72" rx="48.3341" ry="18"/>
<text text-anchor="middle" x="151.067" y="-67.8" font-family="Times,serif" font-size="14.00" fill="gray">\Exception</text>
</g>
<!-- \\Halfpastfour\\Reddit\\Exceptions\\SubredditContextException&#45;&gt;\\Exception -->
<g id="edge1" class="edge"><title>\\Halfpastfour\\Reddit\\Exceptions\\SubredditContextException&#45;&gt;\\Exception</title>
<path fill="none" stroke="black" d="M379.973,-470.923C375.07,-468.336 370.404,-465.379 366.134,-462 241.699,-363.525 179.117,-171.918 159.254,-100.092"/>
<polygon fill="none" stroke="black" points="162.517,-98.7478 156.531,-90.0062 155.759,-100.573 162.517,-98.7478"/>
</g>
<!-- \\Halfpastfour\\Reddit\\Exceptions\\ThingContextException -->
<g id="node2" class="node"><title>\\Halfpastfour\\Reddit\\Exceptions\\ThingContextException</title>
<polygon fill="none" stroke="black" points="541.77,-453 387.524,-453 387.524,-417 541.77,-417 541.77,-453"/>
<text text-anchor="middle" x="464.647" y="-431.7" font-family="Courier,monospace" font-size="11.00">ThingContextException</text>
</g>
<!-- \\Halfpastfour\\Reddit\\Exceptions\\ThingContextException&#45;&gt;\\Exception -->
<g id="edge2" class="edge"><title>\\Halfpastfour\\Reddit\\Exceptions\\ThingContextException&#45;&gt;\\Exception</title>
<path fill="none" stroke="black" d="M387.066,-419.789C379.623,-416.583 372.489,-412.701 366.134,-408 253.702,-324.843 185.338,-163.457 161.564,-99.2783"/>
<polygon fill="none" stroke="black" points="164.838,-98.0411 158.131,-89.8396 158.26,-100.434 164.838,-98.0411"/>
</g>
<!-- \\Halfpastfour\\Reddit\\Exceptions\\UserContextException -->
<g id="node3" class="node"><title>\\Halfpastfour\\Reddit\\Exceptions\\UserContextException</title>
<polygon fill="none" stroke="black" points="538.669,-399 390.626,-399 390.626,-363 538.669,-363 538.669,-399"/>
<text text-anchor="middle" x="464.647" y="-377.7" font-family="Courier,monospace" font-size="11.00">UserContextException</text>
</g>
<!-- \\Halfpastfour\\Reddit\\Exceptions\\UserContextException&#45;&gt;\\Exception -->
<g id="edge5" class="edge"><title>\\Halfpastfour\\Reddit\\Exceptions\\UserContextException&#45;&gt;\\Exception</title>
<path fill="none" stroke="black" d="M390.467,-366.459C381.88,-363.123 373.549,-359.027 366.134,-354 265.619,-285.851 192.75,-154.929 164.722,-98.7151"/>
<polygon fill="none" stroke="black" points="167.862,-97.1683 160.312,-89.7357 161.579,-100.255 167.862,-97.1683"/>
</g>
<!-- \\Halfpastfour\\Reddit\\Exceptions\\TokenStorageException -->
<g id="node4" class="node"><title>\\Halfpastfour\\Reddit\\Exceptions\\TokenStorageException</title>
<polygon fill="none" stroke="black" points="541.77,-345 387.524,-345 387.524,-309 541.77,-309 541.77,-345"/>
<text text-anchor="middle" x="464.647" y="-323.7" font-family="Courier,monospace" font-size="11.00">TokenStorageException</text>
</g>
<!-- \\Halfpastfour\\Reddit\\Exceptions\\TokenStorageException&#45;&gt;\\Exception -->
<g id="edge6" class="edge"><title>\\Halfpastfour\\Reddit\\Exceptions\\TokenStorageException&#45;&gt;\\Exception</title>
<path fill="none" stroke="black" d="M390.213,-308.94C381.806,-305.568 373.588,-301.615 366.134,-297 278.709,-242.871 202.741,-144.524 169.677,-97.8786"/>
<polygon fill="none" stroke="black" points="172.432,-95.7112 163.828,-89.5299 166.699,-99.7281 172.432,-95.7112"/>
</g>
<!-- \\Halfpastfour\\Reddit\\Things\\Comment -->
<g id="node5" class="node"><title>\\Halfpastfour\\Reddit\\Things\\Comment</title>
<polygon fill="none" stroke="black" points="495.855,-586 433.439,-586 433.439,-550 495.855,-550 495.855,-586"/>
<text text-anchor="middle" x="464.647" y="-564.7" font-family="Courier,monospace" font-size="11.00">Comment</text>
</g>
<!-- \\Halfpastfour\\Reddit\\Things\\ThingInterface -->
<g id="node6" class="node"><title>\\Halfpastfour\\Reddit\\Things\\ThingInterface</title>
<polygon fill="none" stroke="black" points="205.483,-586 96.651,-586 96.651,-550 205.483,-550 205.483,-586"/>
<text text-anchor="middle" x="151.067" y="-564.7" font-family="Courier,monospace" font-size="11.00">ThingInterface</text>
</g>
<!-- \\Halfpastfour\\Reddit\\Things\\Comment&#45;&gt;\\Halfpastfour\\Reddit\\Things\\ThingInterface -->
<g id="edge3" class="edge"><title>\\Halfpastfour\\Reddit\\Things\\Comment&#45;&gt;\\Halfpastfour\\Reddit\\Things\\ThingInterface</title>
<path fill="none" stroke="black" stroke-dasharray="1,5" d="M433.488,-568C383.474,-568 282.309,-568 215.888,-568"/>
<polygon fill="none" stroke="black" points="215.539,-564.5 205.539,-568 215.539,-571.5 215.539,-564.5"/>
</g>
<!-- \\Halfpastfour\\Reddit\\Contexts\\User -->
<g id="node7" class="node"><title>\\Halfpastfour\\Reddit\\Contexts\\User</title>
<polygon fill="none" stroke="black" points="491.647,-266 437.647,-266 437.647,-230 491.647,-230 491.647,-266"/>
<text text-anchor="middle" x="464.647" y="-244.7" font-family="Courier,monospace" font-size="11.00">User</text>
</g>
<!-- \\Halfpastfour\\Reddit\\Interfaces\\Context -->
<g id="node11" class="node"><title>\\Halfpastfour\\Reddit\\Interfaces\\Context</title>
<ellipse fill="none" stroke="black" cx="151.067" cy="-18" rx="151.134" ry="18"/>
<text text-anchor="middle" x="151.067" y="-13.8" font-family="Times,serif" font-size="14.00" fill="gray">\Halfpastfour\Reddit\Interfaces\Context</text>
</g>
<!-- \\Halfpastfour\\Reddit\\Contexts\\User&#45;&gt;\\Halfpastfour\\Reddit\\Interfaces\\Context -->
<g id="edge4" class="edge"><title>\\Halfpastfour\\Reddit\\Contexts\\User&#45;&gt;\\Halfpastfour\\Reddit\\Interfaces\\Context</title>
<path fill="none" stroke="black" stroke-dasharray="1,5" d="M437.346,-248.701C415.728,-247.872 385.595,-243.29 366.134,-226 302.348,-169.328 367.148,-100.259 302.134,-45 296.518,-40.2265 290.348,-36.172 283.811,-32.7365"/>
<polygon fill="none" stroke="black" points="285.225,-29.5335 274.688,-28.4261 282.235,-35.8627 285.225,-29.5335"/>
</g>
<!-- \\Halfpastfour\\Reddit\\TokenStorageMethod -->
<g id="node8" class="node"><title>\\Halfpastfour\\Reddit\\TokenStorageMethod</title>
<polygon fill="none" stroke="black" points="531.967,-212 397.328,-212 397.328,-176 531.967,-176 531.967,-212"/>
<text text-anchor="middle" x="464.647" y="-190.7" font-family="Courier,monospace" font-size="11.00">TokenStorageMethod</text>
</g>
<!-- \\Halfpastfour\\Reddit\\HttpMethod -->
<g id="node9" class="node"><title>\\Halfpastfour\\Reddit\\HttpMethod</title>
<polygon fill="none" stroke="black" points="505.658,-158 423.636,-158 423.636,-122 505.658,-122 505.658,-158"/>
<text text-anchor="middle" x="464.647" y="-136.7" font-family="Courier,monospace" font-size="11.00">HttpMethod</text>
</g>
</g>
</svg>
