<?xml version="1.0" encoding="UTF-8" standalone="no"?>
<!DOCTYPE svg PUBLIC "-//W3C//DTD SVG 1.1//EN"
 "http://www.w3.org/Graphics/SVG/1.1/DTD/svg11.dtd">
<!-- Generated by graphviz version 2.38.0 (20140413.2041)
 -->
<!-- Title: G Pages: 1 -->
<svg width="449pt" height="1059pt"
 viewBox="0.00 0.00 449.44 1059.00" xmlns="http://www.w3.org/2000/svg" xmlns:xlink="http://www.w3.org/1999/xlink">
<g id="graph0" class="graph" transform="scale(1 1) rotate(0) translate(4 1055)">
<title>G</title>
<polygon fill="white" stroke="none" points="-4,4 -4,-1055 445.442,-1055 445.442,4 -4,4"/>
<g id="clust1" class="cluster"><title>cluster_Global</title>
<path fill="none" stroke="gray" d="M20,-44C20,-44 421.442,-44 421.442,-44 427.442,-44 433.442,-50 433.442,-56 433.442,-56 433.442,-1031 433.442,-1031 433.442,-1037 427.442,-1043 421.442,-1043 421.442,-1043 20,-1043 20,-1043 14,-1043 8,-1037 8,-1031 8,-1031 8,-56 8,-56 8,-50 14,-44 20,-44"/>
<text text-anchor="middle" x="220.721" y="-1030.2" font-family="Times,serif" font-size="11.00" fill="gray">Global</text>
</g>
<g id="clust2" class="cluster"><title>cluster_\Halfpastfour</title>
<path fill="none" stroke="gray" d="M28,-52C28,-52 413.442,-52 413.442,-52 419.442,-52 425.442,-58 425.442,-64 425.442,-64 425.442,-1004 425.442,-1004 425.442,-1010 419.442,-1016 413.442,-1016 413.442,-1016 28,-1016 28,-1016 22,-1016 16,-1010 16,-1004 16,-1004 16,-64 16,-64 16,-58 22,-52 28,-52"/>
<text text-anchor="middle" x="220.721" y="-1003.2" font-family="Times,serif" font-size="11.00" fill="gray">Halfpastfour</text>
</g>
<g id="clust3" class="cluster"><title>cluster_\Halfpastfour\Reddit</title>
<path fill="none" stroke="gray" d="M36,-60C36,-60 405.442,-60 405.442,-60 411.442,-60 417.442,-66 417.442,-72 417.442,-72 417.442,-977 417.442,-977 417.442,-983 411.442,-989 405.442,-989 405.442,-989 36,-989 36,-989 30,-989 24,-983 24,-977 24,-977 24,-72 24,-72 24,-66 30,-60 36,-60"/>
<text text-anchor="middle" x="220.721" y="-976.2" font-family="Times,serif" font-size="11.00" fill="gray">Reddit</text>
</g>
<g id="clust4" class="cluster"><title>cluster_\Halfpastfour\Reddit\Interfaces</title>
<path fill="none" stroke="gray" d="M67.1038,-731C67.1038,-731 121.311,-731 121.311,-731 127.311,-731 133.311,-737 133.311,-743 133.311,-743 133.311,-844 133.311,-844 133.311,-850 127.311,-856 121.311,-856 121.311,-856 67.1038,-856 67.1038,-856 61.1038,-856 55.1038,-850 55.1038,-844 55.1038,-844 55.1038,-743 55.1038,-743 55.1038,-737 61.1038,-731 67.1038,-731"/>
<text text-anchor="middle" x="94.2075" y="-843.2" font-family="Times,serif" font-size="11.00" fill="gray">Interfaces</text>
</g>
<g id="clust5" class="cluster"><title>cluster_\Halfpastfour\Reddit\Exceptions</title>
<path fill="none" stroke="gray" d="M224.415,-301C224.415,-301 397.442,-301 397.442,-301 403.442,-301 409.442,-307 409.442,-313 409.442,-313 409.442,-522 409.442,-522 409.442,-528 403.442,-534 397.442,-534 397.442,-534 224.415,-534 224.415,-534 218.415,-534 212.415,-528 212.415,-522 212.415,-522 212.415,-313 212.415,-313 212.415,-307 218.415,-301 224.415,-301"/>
<text text-anchor="middle" x="310.928" y="-521.2" font-family="Times,serif" font-size="11.00" fill="gray">Exceptions</text>
</g>
<g id="clust6" class="cluster"><title>cluster_\Halfpastfour\Reddit\Things</title>
<path fill="none" stroke="gray" d="M44,-891C44,-891 338.032,-891 338.032,-891 344.032,-891 350.032,-897 350.032,-903 350.032,-903 350.032,-950 350.032,-950 350.032,-956 344.032,-962 338.032,-962 338.032,-962 44,-962 44,-962 38,-962 32,-956 32,-950 32,-950 32,-903 32,-903 32,-897 38,-891 44,-891"/>
<text text-anchor="middle" x="191.016" y="-949.2" font-family="Times,serif" font-size="11.00" fill="gray">Things</text>
</g>
<g id="clust7" class="cluster"><title>cluster_\Halfpastfour\Reddit\Contexts</title>
<path fill="none" stroke="gray" d="M247.519,-542C247.519,-542 374.338,-542 374.338,-542 380.338,-542 386.338,-548 386.338,-554 386.338,-554 386.338,-871 386.338,-871 386.338,-877 380.338,-883 374.338,-883 374.338,-883 247.519,-883 247.519,-883 241.519,-883 235.519,-877 235.519,-871 235.519,-871 235.519,-554 235.519,-554 235.519,-548 241.519,-542 247.519,-542"/>
<text text-anchor="middle" x="310.928" y="-870.2" font-family="Times,serif" font-size="11.00" fill="gray">Contexts</text>
</g>
<g id="clust8" class="cluster"><title>cluster_\Halfpastfour\Reddit\ArrayOptions</title>
<path fill="none" stroke="gray" d="M283.825,-222C283.825,-222 338.032,-222 338.032,-222 344.032,-222 350.032,-228 350.032,-234 350.032,-234 350.032,-281 350.032,-281 350.032,-287 344.032,-293 338.032,-293 338.032,-293 283.825,-293 283.825,-293 277.825,-293 271.825,-287 271.825,-281 271.825,-281 271.825,-234 271.825,-234 271.825,-228 277.825,-222 283.825,-222"/>
<text text-anchor="middle" x="310.928" y="-280.2" font-family="Times,serif" font-size="11.00" fill="gray">ArrayOptions</text>
</g>
<!-- \\Halfpastfour\\Reddit\\Interfaces\\Bot -->
<g id="node1" class="node"><title>\\Halfpastfour\\Reddit\\Interfaces\\Bot</title>
<polygon fill="none" stroke="black" points="121.208,-829 67.2075,-829 67.2075,-793 121.208,-793 121.208,-829"/>
<text text-anchor="middle" x="94.2075" y="-807.7" font-family="Courier,monospace" font-size="11.00">Bot</text>
</g>
<!-- \\Halfpastfour\\Reddit\\Interfaces\\Context -->
<g id="node2" class="node"><title>\\Halfpastfour\\Reddit\\Interfaces\\Context</title>
<polygon fill="none" stroke="black" points="125.415,-775 62.9997,-775 62.9997,-739 125.415,-739 125.415,-775"/>
<text text-anchor="middle" x="94.2075" y="-753.7" font-family="Courier,monospace" font-size="11.00">Context</text>
</g>
<!-- \\Halfpastfour\\Reddit\\Exceptions\\SubredditContextException -->
<g id="node3" class="node"><title>\\Halfpastfour\\Reddit\\Exceptions\\SubredditContextException</title>
<polygon fill="none" stroke="black" points="401.455,-507 220.402,-507 220.402,-471 401.455,-471 401.455,-507"/>
<text text-anchor="middle" x="310.928" y="-485.7" font-family="Courier,monospace" font-size="11.00">SubredditContextException</text>
</g>
<!-- \\Exception -->
<g id="node19" class="node"><title>\\Exception</title>
<ellipse fill="none" stroke="black" cx="94.2075" cy="-18" rx="48.3341" ry="18"/>
<text text-anchor="middle" x="94.2075" y="-13.8" font-family="Times,serif" font-size="14.00" fill="gray">\Exception</text>
</g>
<!-- \\Halfpastfour\\Reddit\\Exceptions\\SubredditContextException&#45;&gt;\\Exception -->
<g id="edge1" class="edge"><title>\\Halfpastfour\\Reddit\\Exceptions\\SubredditContextException&#45;&gt;\\Exception</title>
<path fill="none" stroke="black" d="M223.443,-470.937C219.464,-468.336 215.749,-465.374 212.415,-462 152.708,-401.571 111.184,-134.06 98.947,-46.1221"/>
<polygon fill="none" stroke="black" points="102.397,-45.5152 97.5694,-36.0839 95.4616,-46.467 102.397,-45.5152"/>
</g>
<!-- \\Halfpastfour\\Reddit\\Exceptions\\ThingContextException -->
<g id="node4" class="node"><title>\\Halfpastfour\\Reddit\\Exceptions\\ThingContextException</title>
<polygon fill="none" stroke="black" points="388.051,-453 233.805,-453 233.805,-417 388.051,-417 388.051,-453"/>
<text text-anchor="middle" x="310.928" y="-431.7" font-family="Courier,monospace" font-size="11.00">ThingContextException</text>
</g>
<!-- \\Halfpastfour\\Reddit\\Exceptions\\ThingContextException&#45;&gt;\\Exception -->
<g id="edge2" class="edge"><title>\\Halfpastfour\\Reddit\\Exceptions\\ThingContextException&#45;&gt;\\Exception</title>
<path fill="none" stroke="black" d="M233.35,-422.17C225.637,-418.532 218.442,-413.897 212.415,-408 108.83,-306.651 95.9816,-117.568 94.975,-46.223"/>
<polygon fill="none" stroke="black" points="98.4748,-46.1687 94.9029,-36.1942 91.475,-46.2191 98.4748,-46.1687"/>
</g>
<!-- \\Halfpastfour\\Reddit\\Exceptions\\UserContextException -->
<g id="node5" class="node"><title>\\Halfpastfour\\Reddit\\Exceptions\\UserContextException</title>
<polygon fill="none" stroke="black" points="384.95,-399 236.907,-399 236.907,-363 384.95,-363 384.95,-399"/>
<text text-anchor="middle" x="310.928" y="-377.7" font-family="Courier,monospace" font-size="11.00">UserContextException</text>
</g>
<!-- \\Halfpastfour\\Reddit\\Exceptions\\UserContextException&#45;&gt;\\Exception -->
<g id="edge8" class="edge"><title>\\Halfpastfour\\Reddit\\Exceptions\\UserContextException&#45;&gt;\\Exception</title>
<path fill="none" stroke="black" d="M236.533,-369.209C227.68,-365.434 219.339,-360.484 212.415,-354 121.833,-269.166 101.239,-110.583 96.5707,-46.2251"/>
<polygon fill="none" stroke="black" points="100.05,-45.7865 95.9098,-36.034 93.0644,-46.2396 100.05,-45.7865"/>
</g>
<!-- \\Halfpastfour\\Reddit\\Exceptions\\TokenStorageException -->
<g id="node6" class="node"><title>\\Halfpastfour\\Reddit\\Exceptions\\TokenStorageException</title>
<polygon fill="none" stroke="black" points="388.051,-345 233.805,-345 233.805,-309 388.051,-309 388.051,-345"/>
<text text-anchor="middle" x="310.928" y="-323.7" font-family="Courier,monospace" font-size="11.00">TokenStorageException</text>
</g>
<!-- \\Halfpastfour\\Reddit\\Exceptions\\TokenStorageException&#45;&gt;\\Exception -->
<g id="edge9" class="edge"><title>\\Halfpastfour\\Reddit\\Exceptions\\TokenStorageException&#45;&gt;\\Exception</title>
<path fill="none" stroke="black" d="M233.409,-310.834C225.779,-307.134 218.586,-302.587 212.415,-297 136.31,-228.097 108.098,-101.827 99.0072,-45.9121"/>
<polygon fill="none" stroke="black" points="102.464,-45.3615 97.48,-36.0121 95.5456,-46.4288 102.464,-45.3615"/>
</g>
<!-- \\Halfpastfour\\Reddit\\Things\\Comment -->
<g id="node7" class="node"><title>\\Halfpastfour\\Reddit\\Things\\Comment</title>
<polygon fill="none" stroke="black" points="342.136,-935 279.721,-935 279.721,-899 342.136,-899 342.136,-935"/>
<text text-anchor="middle" x="310.928" y="-913.7" font-family="Courier,monospace" font-size="11.00">Comment</text>
</g>
<!-- \\Halfpastfour\\Reddit\\Things\\ThingInterface -->
<g id="node8" class="node"><title>\\Halfpastfour\\Reddit\\Things\\ThingInterface</title>
<polygon fill="none" stroke="black" points="148.623,-935 39.7917,-935 39.7917,-899 148.623,-899 148.623,-935"/>
<text text-anchor="middle" x="94.2075" y="-913.7" font-family="Courier,monospace" font-size="11.00">ThingInterface</text>
</g>
<!-- \\Halfpastfour\\Reddit\\Things\\Comment&#45;&gt;\\Halfpastfour\\Reddit\\Things\\ThingInterface -->
<g id="edge3" class="edge"><title>\\Halfpastfour\\Reddit\\Things\\Comment&#45;&gt;\\Halfpastfour\\Reddit\\Things\\ThingInterface</title>
<path fill="none" stroke="black" stroke-dasharray="1,5" d="M279.62,-917C248.354,-917 198.663,-917 158.736,-917"/>
<polygon fill="none" stroke="black" points="158.55,-913.5 148.55,-917 158.55,-920.5 158.55,-913.5"/>
</g>
<!-- \\Halfpastfour\\Reddit\\Contexts\\User -->
<g id="node9" class="node"><title>\\Halfpastfour\\Reddit\\Contexts\\User</title>
<polygon fill="none" stroke="black" points="337.928,-856 283.928,-856 283.928,-820 337.928,-820 337.928,-856"/>
<text text-anchor="middle" x="310.928" y="-834.7" font-family="Courier,monospace" font-size="11.00">User</text>
</g>
<!-- \\Halfpastfour\\Reddit\\Contexts\\User&#45;&gt;\\Halfpastfour\\Reddit\\Interfaces\\Context -->
<g id="edge4" class="edge"><title>\\Halfpastfour\\Reddit\\Contexts\\User&#45;&gt;\\Halfpastfour\\Reddit\\Interfaces\\Context</title>
<path fill="none" stroke="black" stroke-dasharray="1,5" d="M283.906,-832.011C264.054,-827.152 236.169,-819.696 212.415,-811 185.906,-801.296 157.099,-788.063 134.677,-777.125"/>
<polygon fill="none" stroke="black" points="136.001,-773.876 125.484,-772.595 132.907,-780.155 136.001,-773.876"/>
</g>
<!-- \\Halfpastfour\\Reddit\\Contexts\\Thing -->
<g id="node10" class="node"><title>\\Halfpastfour\\Reddit\\Contexts\\Thing</title>
<polygon fill="none" stroke="black" points="337.928,-802 283.928,-802 283.928,-766 337.928,-766 337.928,-802"/>
<text text-anchor="middle" x="310.928" y="-780.7" font-family="Courier,monospace" font-size="11.00">Thing</text>
</g>
<!-- \\Halfpastfour\\Reddit\\Contexts\\Thing&#45;&gt;\\Halfpastfour\\Reddit\\Interfaces\\Context -->
<g id="edge5" class="edge"><title>\\Halfpastfour\\Reddit\\Contexts\\Thing&#45;&gt;\\Halfpastfour\\Reddit\\Interfaces\\Context</title>
<path fill="none" stroke="black" stroke-dasharray="1,5" d="M283.599,-780.689C246.588,-776.035 178.858,-767.519 135.491,-762.065"/>
<polygon fill="none" stroke="black" points="135.918,-758.592 125.559,-760.817 135.044,-765.537 135.918,-758.592"/>
</g>
<!-- \\Halfpastfour\\Reddit\\Contexts\\Subreddit -->
<g id="node11" class="node"><title>\\Halfpastfour\\Reddit\\Contexts\\Subreddit</title>
<polygon fill="none" stroke="black" points="348.839,-748 273.018,-748 273.018,-712 348.839,-712 348.839,-748"/>
<text text-anchor="middle" x="310.928" y="-726.7" font-family="Courier,monospace" font-size="11.00">Subreddit</text>
</g>
<!-- \\Halfpastfour\\Reddit\\Contexts\\Subreddit&#45;&gt;\\Halfpastfour\\Reddit\\Interfaces\\Context -->
<g id="edge6" class="edge"><title>\\Halfpastfour\\Reddit\\Contexts\\Subreddit&#45;&gt;\\Halfpastfour\\Reddit\\Interfaces\\Context</title>
<path fill="none" stroke="black" stroke-dasharray="1,5" d="M273.017,-734.641C234.712,-739.458 174.987,-746.968 135.483,-751.936"/>
<polygon fill="none" stroke="black" points="134.892,-748.482 125.406,-753.203 135.765,-755.428 134.892,-748.482"/>
</g>
<!-- \\Halfpastfour\\Reddit\\Contexts\\PrivateMessage -->
<g id="node12" class="node"><title>\\Halfpastfour\\Reddit\\Contexts\\PrivateMessage</title>
<polygon fill="none" stroke="black" points="365.344,-694 256.513,-694 256.513,-658 365.344,-658 365.344,-694"/>
<text text-anchor="middle" x="310.928" y="-672.7" font-family="Courier,monospace" font-size="11.00">PrivateMessage</text>
</g>
<!-- \\Halfpastfour\\Reddit\\Contexts\\PrivateMessage&#45;&gt;\\Halfpastfour\\Reddit\\Interfaces\\Context -->
<g id="edge7" class="edge"><title>\\Halfpastfour\\Reddit\\Contexts\\PrivateMessage&#45;&gt;\\Halfpastfour\\Reddit\\Interfaces\\Context</title>
<path fill="none" stroke="black" stroke-dasharray="1,5" d="M256.549,-689.106C242.079,-693.111 226.519,-697.837 212.415,-703 185.906,-712.704 157.099,-725.937 134.677,-736.875"/>
<polygon fill="none" stroke="black" points="132.907,-733.845 125.484,-741.405 136.001,-740.124 132.907,-733.845"/>
</g>
<!-- \\Halfpastfour\\Reddit\\Contexts\\ContextSetterTrait -->
<g id="node13" class="node"><title>\\Halfpastfour\\Reddit\\Contexts\\ContextSetterTrait</title>
<polygon fill="none" stroke="black" points="378.248,-640 243.609,-640 243.609,-604 378.248,-604 378.248,-640"/>
<text text-anchor="middle" x="310.928" y="-618.7" font-family="Courier,monospace" font-size="11.00">ContextSetterTrait</text>
</g>
<!-- \\Halfpastfour\\Reddit\\Contexts\\ContextGetterTrait -->
<g id="node14" class="node"><title>\\Halfpastfour\\Reddit\\Contexts\\ContextGetterTrait</title>
<polygon fill="none" stroke="black" points="378.248,-586 243.609,-586 243.609,-550 378.248,-550 378.248,-586"/>
<text text-anchor="middle" x="310.928" y="-564.7" font-family="Courier,monospace" font-size="11.00">ContextGetterTrait</text>
</g>
<!-- \\Halfpastfour\\Reddit\\ArrayOptions\\Listing -->
<g id="node15" class="node"><title>\\Halfpastfour\\Reddit\\ArrayOptions\\Listing</title>
<polygon fill="none" stroke="black" points="342.136,-266 279.721,-266 279.721,-230 342.136,-230 342.136,-266"/>
<text text-anchor="middle" x="310.928" y="-244.7" font-family="Courier,monospace" font-size="11.00">Listing</text>
</g>
<!-- \\Halfpastfour\\Reddit\\TokenStorageMethod -->
<g id="node16" class="node"><title>\\Halfpastfour\\Reddit\\TokenStorageMethod</title>
<polygon fill="none" stroke="black" points="378.248,-212 243.609,-212 243.609,-176 378.248,-176 378.248,-212"/>
<text text-anchor="start" x="277.923" y="-196.2" font-family="Courier,monospace" font-size="11.00">«abstract»</text>
<text text-anchor="start" x="251.519" y="-185.2" font-family="Courier,monospace" font-size="11.00">TokenStorageMethod</text>
</g>
<!-- \\Halfpastfour\\Reddit\\HttpMethod -->
<g id="node17" class="node"><title>\\Halfpastfour\\Reddit\\HttpMethod</title>
<polygon fill="none" stroke="black" points="351.939,-158 269.918,-158 269.918,-122 351.939,-122 351.939,-158"/>
<text text-anchor="start" x="277.923" y="-142.2" font-family="Courier,monospace" font-size="11.00">«abstract»</text>
<text text-anchor="start" x="277.923" y="-131.2" font-family="Courier,monospace" font-size="11.00">HttpMethod</text>
</g>
<!-- \\Halfpastfour\\Reddit\\Reddit -->
<g id="node18" class="node"><title>\\Halfpastfour\\Reddit\\Reddit</title>
<polygon fill="none" stroke="black" points="338.536,-104 283.321,-104 283.321,-68 338.536,-68 338.536,-104"/>
<text text-anchor="middle" x="310.928" y="-82.7" font-family="Courier,monospace" font-size="11.00">Reddit</text>
</g>
</g>
</svg>
